<?xml version="1.0" standalone="no"?>
<!DOCTYPE svg PUBLIC "-//W3C//DTD SVG 20010904//EN"
 "http://www.w3.org/TR/2001/REC-SVG-20010904/DTD/svg10.dtd">
<svg version="1.0" xmlns="http://www.w3.org/2000/svg"
 width="300.000000pt" height="300.000000pt" viewBox="0 0 300.000000 300.000000"
 preserveAspectRatio="xMidYMid meet">
<metadata>
Created by potrace 1.11, written by Peter Selinger 2001-2013
</metadata>
<g transform="translate(0.000000,300.000000) scale(0.100000,-0.100000)"
fill="#000000" stroke="none">
<path d="M648 2933 c-8 -10 -25 -47 -38 -81 -25 -68 -25 -68 -85 -76 -22 -3
-41 -5 -41 -6 -1 0 -5 -12 -9 -27 -7 -31 14 -53 52 -53 28 0 27 6 3 -65 -11
-32 -18 -67 -14 -77 5 -17 39 -32 60 -27 13 4 94 -23 94 -31 0 -4 -12 -17 -26
-31 -38 -35 -45 -54 -34 -83 15 -40 49 -33 99 19 24 25 47 45 52 45 4 0 14 12
22 26 l14 26 17 -46 c21 -56 67 -106 96 -106 12 0 35 10 52 21 l29 21 34 -36
c35 -38 65 -46 85 -21 18 21 6 55 -35 100 -19 22 -35 43 -35 46 0 3 19 4 43 2
51 -5 73 13 63 51 -6 24 -12 28 -68 40 -19 4 -28 13 -28 25 0 24 -26 51 -49
51 -21 0 -41 -39 -41 -81 l0 -30 -61 7 c-54 6 -62 5 -75 -15 -17 -24 -34 -28
-34 -7 0 19 -42 47 -113 76 -45 18 -57 26 -52 39 4 9 12 28 17 44 5 15 15 27
21 28 46 1 137 10 164 14 39 7 56 47 31 71 -15 15 -34 17 -120 11 -27 -2 -48
0 -48 3 0 4 7 27 15 50 19 54 19 65 -1 84 -20 21 -37 20 -56 -1z"/>
<path d="M2448 2913 c-22 -5 -30 -35 -26 -88 3 -39 2 -40 -36 -46 -84 -14 -73
-89 13 -89 29 0 31 -2 31 -40 0 -37 -2 -40 -28 -40 -28 0 -62 -26 -62 -48 0
-20 32 -42 63 -43 l32 -1 -27 -8 c-68 -20 -100 -64 -87 -119 4 -20 5 -39 1
-42 -4 -3 -45 -21 -92 -39 -47 -18 -100 -39 -117 -46 -18 -8 -51 -21 -73 -29
-37 -13 -40 -13 -55 8 -29 42 -130 139 -160 154 -16 9 -31 17 -33 18 -2 2 10
24 27 50 25 39 28 51 20 75 -6 16 -16 31 -24 34 -25 9 -55 -6 -62 -33 -10 -42
-62 -95 -100 -102 -26 -5 -37 -1 -54 17 -26 28 -25 33 31 249 17 66 28 130 25
141 -5 22 -37 37 -59 28 -13 -5 -32 -51 -40 -97 -3 -16 -10 -43 -15 -60 -6
-18 -12 -43 -15 -57 -2 -14 -11 -50 -20 -80 -28 -97 -28 -114 -3 -152 l24 -34
-31 -36 c-31 -36 -132 -217 -129 -230 6 -20 -82 -17 -197 7 -69 15 -136 28
-149 31 -88 18 -619 128 -721 150 -69 15 -136 26 -149 25 -43 -2 -47 -13 -39
-108 4 -48 10 -122 13 -163 3 -41 8 -97 10 -125 12 -128 15 -166 21 -245 3
-47 7 -95 9 -107 13 -84 16 -223 5 -263 -7 -25 -12 -46 -12 -47 1 -2 -4 -17
-9 -35 -25 -80 -59 -211 -59 -225 0 -23 40 -54 57 -45 8 5 25 31 38 58 l23 49
1 -37 c1 -48 17 -88 34 -88 10 0 17 -18 22 -57 9 -75 8 -71 39 -188 15 -55 30
-103 34 -107 14 -13 66 -17 80 -6 8 7 18 23 24 37 9 25 9 25 27 -15 10 -22 40
-62 67 -88 49 -48 171 -126 230 -148 l32 -11 -56 -45 c-79 -65 -310 -205 -400
-243 -42 -18 -122 -45 -177 -60 l-100 -27 260 -1 260 0 47 30 c27 16 51 29 53
29 3 0 42 25 86 56 45 30 83 54 85 52 1 -2 -6 -37 -16 -78 -11 -41 -20 -78
-20 -83 0 -4 51 -7 114 -6 l114 1 6 26 c4 15 21 81 38 148 28 108 34 121 52
119 12 -2 46 -6 76 -10 30 -4 71 -8 90 -9 40 -3 40 -9 -1 -54 -25 -27 -28 -36
-19 -48 7 -8 18 -14 25 -14 10 0 9 -9 -2 -42 -13 -38 -13 -46 3 -80 l17 -38
667 0 c367 0 670 3 673 7 4 3 -10 29 -30 57 -33 46 -37 58 -39 121 -1 39 -2
78 -3 87 0 9 -12 28 -26 41 l-26 23 31 70 c17 38 37 81 44 96 l12 28 50 -53
c62 -66 151 -183 234 -307 34 -52 67 -99 71 -104 5 -6 8 156 6 368 l-2 378
-170 89 c-93 49 -181 95 -195 102 -22 11 -25 19 -24 62 0 51 12 215 19 270 2
17 7 71 10 120 4 50 8 106 10 125 2 19 6 71 10 115 3 44 10 127 15 185 5 58
12 146 16 195 10 134 18 180 32 181 34 4 21 -26 169 364 76 202 81 233 41 246
-17 5 -27 0 -44 -22 -13 -15 -26 -39 -29 -53 -4 -14 -13 -39 -20 -56 -7 -16
-34 -86 -60 -155 -27 -69 -50 -127 -52 -129 -2 -3 -9 2 -16 11 -18 23 -38 26
-75 11 -29 -12 -37 -11 -68 3 -19 9 -36 20 -39 24 -6 10 15 27 39 31 10 2 25
14 33 26 13 19 12 24 -7 43 -14 14 -30 20 -44 18 -20 -4 -23 0 -24 33 -2 34 1
38 28 44 66 14 53 88 -15 90 -21 0 -22 4 -24 67 0 20 -8 44 -17 52 -16 17 -17
17 -46 9z m-1875 -2035 c-32 -27 -33 -23 -10 33 l22 52 5 -34 c4 -27 0 -38
-17 -51z m1669 -709 c-20 -38 -40 -69 -43 -69 -4 0 -5 17 -4 37 1 21 3 67 4
101 l1 64 40 -32 40 -31 -38 -70z"/>
<path d="M2056 2874 c-18 -18 -19 -25 -7 -76 6 -27 6 -38 -3 -39 -108 -6 -153
-41 -109 -84 13 -14 28 -16 74 -11 32 4 60 3 62 -1 3 -5 8 -28 12 -52 12 -85
28 -116 57 -119 44 -5 53 28 35 119 -9 41 -14 75 -13 76 1 1 20 4 41 7 22 2
43 5 46 5 3 1 11 12 17 25 8 18 7 28 -4 45 -13 18 -22 20 -68 15 l-53 -6 -7
40 c-10 64 -47 90 -80 56z"/>
<path d="M257 2812 c-9 -10 -15 -27 -13 -38 4 -18 135 -407 151 -447 16 -39
85 -29 85 13 0 22 -144 441 -162 469 -16 26 -39 27 -61 3z"/>
<path d="M1782 2798 c-15 -7 -21 -18 -19 -32 5 -32 34 -83 52 -90 19 -7 51 8
58 26 6 18 -20 80 -40 96 -20 14 -21 14 -51 0z"/>
<path d="M1685 2750 c-12 -14 -15 -27 -11 -47 11 -42 34 -73 55 -73 16 0 60
37 53 46 -2 2 -10 21 -19 41 -23 57 -47 67 -78 33z"/>
<path d="M1262 2670 c-57 -4 -86 -10 -92 -20 -14 -22 -12 -36 6 -55 13 -13 37
-15 128 -14 124 2 156 11 156 44 0 46 -39 55 -198 45z"/>
<path d="M1974 2529 c-18 -20 -18 -22 21 -96 49 -92 93 -115 115 -59 6 16 -1
38 -28 86 -51 93 -73 107 -108 69z"/>
</g>
</svg>
